<mxfile host="app.diagrams.net" agent="Mozilla/5.0 (X11; Linux x86_64; rv:132.0) Gecko/20100101 Firefox/132.0" version="25.0.3" pages="2">
  <diagram name="DNS resolver" id="-U9XJzt1BLZ21hI1Nl3i">
    <mxGraphModel dx="2984" dy="813" grid="1" gridSize="10" guides="1" tooltips="1" connect="1" arrows="1" fold="1" page="1" pageScale="1" pageWidth="1100" pageHeight="850" math="0" shadow="0">
      <root>
        <mxCell id="0" />
        <mxCell id="1" parent="0" />
        <mxCell id="v-OLIDeeJJNoUvGbv9xZ-9" value="&lt;div&gt;Root name servers&lt;/div&gt;&lt;div&gt;&lt;br&gt;&lt;/div&gt;&lt;div&gt;1918 servers&lt;br&gt;&lt;/div&gt;" style="rounded=1;whiteSpace=wrap;html=1;" vertex="1" parent="1">
          <mxGeometry x="1400" y="493.5" width="90" height="110" as="geometry" />
        </mxCell>
        <mxCell id="v-OLIDeeJJNoUvGbv9xZ-8" value="&lt;div&gt;Root name servers&lt;/div&gt;&lt;div&gt;&lt;br&gt;&lt;/div&gt;&lt;div&gt;1918 servers&lt;br&gt;&lt;/div&gt;" style="rounded=1;whiteSpace=wrap;html=1;" vertex="1" parent="1">
          <mxGeometry x="1390" y="483.5" width="90" height="110" as="geometry" />
        </mxCell>
        <mxCell id="v-OLIDeeJJNoUvGbv9xZ-7" value="&lt;div&gt;Root name servers&lt;/div&gt;&lt;div&gt;&lt;br&gt;&lt;/div&gt;&lt;div&gt;13 servers&lt;br&gt;&lt;/div&gt;" style="rounded=1;whiteSpace=wrap;html=1;" vertex="1" parent="1">
          <mxGeometry x="1400" y="353.5" width="90" height="110" as="geometry" />
        </mxCell>
        <mxCell id="v-OLIDeeJJNoUvGbv9xZ-6" value="&lt;div&gt;Root name servers&lt;/div&gt;&lt;div&gt;&lt;br&gt;&lt;/div&gt;&lt;div&gt;13 servers&lt;br&gt;&lt;/div&gt;" style="rounded=1;whiteSpace=wrap;html=1;" vertex="1" parent="1">
          <mxGeometry x="1390" y="344.5" width="90" height="110" as="geometry" />
        </mxCell>
        <mxCell id="dDs_sU-MVGWkAlIGCaFT-8" value="operating system" style="rounded=0;whiteSpace=wrap;html=1;align=left;verticalAlign=top;fillColor=none;" vertex="1" parent="1">
          <mxGeometry x="-40" y="153" width="635" height="560" as="geometry" />
        </mxCell>
        <mxCell id="tUeSwq-1diPxsUF7kdBA-10" style="edgeStyle=orthogonalEdgeStyle;rounded=1;orthogonalLoop=1;jettySize=auto;html=1;curved=0;" parent="1" source="tUeSwq-1diPxsUF7kdBA-4" target="tUeSwq-1diPxsUF7kdBA-46" edge="1">
          <mxGeometry relative="1" as="geometry">
            <mxPoint x="655" y="453.0000000000001" as="targetPoint" />
            <Array as="points">
              <mxPoint x="165" y="543" />
            </Array>
          </mxGeometry>
        </mxCell>
        <mxCell id="tUeSwq-1diPxsUF7kdBA-11" value="2. queries domain resolution for &lt;font color=&quot;#cc0000&quot;&gt;&lt;b&gt;gabrielslima.com&lt;/b&gt;&lt;/font&gt;" style="edgeLabel;html=1;align=center;verticalAlign=middle;resizable=0;points=[];" parent="tUeSwq-1diPxsUF7kdBA-10" vertex="1" connectable="0">
          <mxGeometry x="-0.6906" y="-3" relative="1" as="geometry">
            <mxPoint x="143" y="61" as="offset" />
          </mxGeometry>
        </mxCell>
        <mxCell id="dDs_sU-MVGWkAlIGCaFT-2" style="edgeStyle=orthogonalEdgeStyle;rounded=0;orthogonalLoop=1;jettySize=auto;html=1;" edge="1" parent="1" source="tUeSwq-1diPxsUF7kdBA-4" target="dDs_sU-MVGWkAlIGCaFT-1">
          <mxGeometry relative="1" as="geometry">
            <Array as="points">
              <mxPoint x="325" y="283" />
              <mxPoint x="325" y="283" />
            </Array>
          </mxGeometry>
        </mxCell>
        <mxCell id="dDs_sU-MVGWkAlIGCaFT-6" value="&lt;div&gt;1. checks its own cache&lt;/div&gt;&lt;div&gt;for the ip address of &lt;b&gt;&lt;font color=&quot;#cc0000&quot;&gt;gabrielslima.com&lt;/font&gt;&lt;/b&gt;&lt;br&gt;&lt;/div&gt;" style="edgeLabel;html=1;align=center;verticalAlign=middle;resizable=0;points=[];" vertex="1" connectable="0" parent="dDs_sU-MVGWkAlIGCaFT-2">
          <mxGeometry x="-0.3045" relative="1" as="geometry">
            <mxPoint x="33" y="-20" as="offset" />
          </mxGeometry>
        </mxCell>
        <mxCell id="tUeSwq-1diPxsUF7kdBA-4" value="" style="strokeWidth=1;shadow=0;dashed=0;align=center;html=1;shape=mxgraph.mockup.containers.browserWindow;rSize=0;strokeColor=#666666;strokeColor2=#008cff;strokeColor3=#c4c4c4;mainText=,;recursiveResize=0;fontSize=10;" parent="1" vertex="1">
          <mxGeometry x="-15" y="203" width="300" height="180" as="geometry" />
        </mxCell>
        <mxCell id="tUeSwq-1diPxsUF7kdBA-5" value="Gabriel S Lima" style="strokeWidth=1;shadow=0;dashed=0;align=center;html=1;shape=mxgraph.mockup.containers.anchor;fontSize=13;fontColor=#666666;align=left;whiteSpace=wrap;" parent="tUeSwq-1diPxsUF7kdBA-4" vertex="1">
          <mxGeometry x="60" y="12" width="120" height="28" as="geometry" />
        </mxCell>
        <mxCell id="tUeSwq-1diPxsUF7kdBA-6" value="https://gabrielslima.com" style="strokeWidth=1;shadow=0;dashed=0;align=center;html=1;shape=mxgraph.mockup.containers.anchor;rSize=0;fontSize=13;fontColor=#666666;align=left;" parent="tUeSwq-1diPxsUF7kdBA-4" vertex="1">
          <mxGeometry x="130" y="60" width="250" height="26" as="geometry" />
        </mxCell>
        <mxCell id="tUeSwq-1diPxsUF7kdBA-15" style="edgeStyle=orthogonalEdgeStyle;rounded=1;orthogonalLoop=1;jettySize=auto;html=1;curved=0;" parent="1" source="tUeSwq-1diPxsUF7kdBA-46" target="tUeSwq-1diPxsUF7kdBA-13" edge="1">
          <mxGeometry relative="1" as="geometry">
            <mxPoint x="590" y="435" as="sourcePoint" />
            <Array as="points">
              <mxPoint x="640" y="529" />
            </Array>
          </mxGeometry>
        </mxCell>
        <mxCell id="tUeSwq-1diPxsUF7kdBA-23" value="3. queries resolution for &lt;b&gt;&lt;font color=&quot;#cc0000&quot;&gt;gabrielslima.com&lt;/font&gt;&lt;/b&gt;" style="edgeLabel;html=1;align=center;verticalAlign=middle;resizable=0;points=[];" parent="tUeSwq-1diPxsUF7kdBA-15" vertex="1" connectable="0">
          <mxGeometry x="-0.277" y="1" relative="1" as="geometry">
            <mxPoint x="50" y="-15" as="offset" />
          </mxGeometry>
        </mxCell>
        <mxCell id="tUeSwq-1diPxsUF7kdBA-18" style="edgeStyle=orthogonalEdgeStyle;rounded=1;orthogonalLoop=1;jettySize=auto;html=1;curved=0;dashed=1;" parent="1" source="tUeSwq-1diPxsUF7kdBA-46" target="tUeSwq-1diPxsUF7kdBA-4" edge="1">
          <mxGeometry relative="1" as="geometry">
            <mxPoint x="655" y="493.0000000000001" as="sourcePoint" />
            <Array as="points">
              <mxPoint x="105" y="583" />
            </Array>
          </mxGeometry>
        </mxCell>
        <mxCell id="tUeSwq-1diPxsUF7kdBA-19" value="ip address for &lt;b&gt;&lt;font color=&quot;#cc0000&quot;&gt;gabrielslima.com&lt;/font&gt;&lt;/b&gt;" style="edgeLabel;html=1;align=center;verticalAlign=middle;resizable=0;points=[];" parent="tUeSwq-1diPxsUF7kdBA-18" vertex="1" connectable="0">
          <mxGeometry x="-0.1032" y="-2" relative="1" as="geometry">
            <mxPoint x="9" y="-8" as="offset" />
          </mxGeometry>
        </mxCell>
        <mxCell id="tUeSwq-1diPxsUF7kdBA-16" style="edgeStyle=orthogonalEdgeStyle;rounded=1;orthogonalLoop=1;jettySize=auto;html=1;curved=0;dashed=1;" parent="1" source="tUeSwq-1diPxsUF7kdBA-13" target="tUeSwq-1diPxsUF7kdBA-46" edge="1">
          <mxGeometry relative="1" as="geometry">
            <mxPoint x="590" y="480" as="targetPoint" />
            <Array as="points">
              <mxPoint x="740" y="570" />
              <mxPoint x="740" y="570" />
            </Array>
          </mxGeometry>
        </mxCell>
        <mxCell id="tUeSwq-1diPxsUF7kdBA-38" value="DNS Record for &lt;b&gt;&lt;font color=&quot;#cc0000&quot;&gt;gabrielslima.com&lt;/font&gt;&lt;/b&gt;" style="edgeLabel;html=1;align=center;verticalAlign=middle;resizable=0;points=[];" parent="tUeSwq-1diPxsUF7kdBA-16" vertex="1" connectable="0">
          <mxGeometry x="0.2857" y="-2" relative="1" as="geometry">
            <mxPoint x="32" y="17" as="offset" />
          </mxGeometry>
        </mxCell>
        <mxCell id="tUeSwq-1diPxsUF7kdBA-21" style="edgeStyle=orthogonalEdgeStyle;rounded=0;orthogonalLoop=1;jettySize=auto;html=1;" parent="1" source="tUeSwq-1diPxsUF7kdBA-13" target="tUeSwq-1diPxsUF7kdBA-20" edge="1">
          <mxGeometry relative="1" as="geometry">
            <Array as="points">
              <mxPoint x="1130" y="360" />
              <mxPoint x="1130" y="360" />
            </Array>
          </mxGeometry>
        </mxCell>
        <mxCell id="tUeSwq-1diPxsUF7kdBA-24" value="4. asks the ip address of the &lt;font color=&quot;#cc0000&quot;&gt;&lt;b&gt;TLD .com name server&lt;/b&gt;&lt;/font&gt;" style="edgeLabel;html=1;align=center;verticalAlign=middle;resizable=0;points=[];" parent="tUeSwq-1diPxsUF7kdBA-21" vertex="1" connectable="0">
          <mxGeometry x="-0.2848" y="-2" relative="1" as="geometry">
            <mxPoint x="31" y="-14" as="offset" />
          </mxGeometry>
        </mxCell>
        <mxCell id="tUeSwq-1diPxsUF7kdBA-28" style="edgeStyle=orthogonalEdgeStyle;rounded=0;orthogonalLoop=1;jettySize=auto;html=1;" parent="1" source="tUeSwq-1diPxsUF7kdBA-13" target="tUeSwq-1diPxsUF7kdBA-26" edge="1">
          <mxGeometry relative="1" as="geometry">
            <Array as="points">
              <mxPoint x="980" y="500" />
              <mxPoint x="980" y="500" />
            </Array>
          </mxGeometry>
        </mxCell>
        <mxCell id="tUeSwq-1diPxsUF7kdBA-31" value="4. asks &lt;b&gt;&lt;font color=&quot;#cc0000&quot;&gt;.com server&lt;/font&gt;&lt;/b&gt; for the Authoritative server for &lt;font color=&quot;#cc0000&quot;&gt;&lt;b&gt;gabrielslima&lt;/b&gt;&lt;/font&gt;.com" style="edgeLabel;html=1;align=center;verticalAlign=middle;resizable=0;points=[];" parent="tUeSwq-1diPxsUF7kdBA-28" vertex="1" connectable="0">
          <mxGeometry x="-0.5172" y="-2" relative="1" as="geometry">
            <mxPoint x="91" y="-12" as="offset" />
          </mxGeometry>
        </mxCell>
        <mxCell id="tUeSwq-1diPxsUF7kdBA-34" style="edgeStyle=orthogonalEdgeStyle;rounded=0;orthogonalLoop=1;jettySize=auto;html=1;" parent="1" source="tUeSwq-1diPxsUF7kdBA-13" target="tUeSwq-1diPxsUF7kdBA-33" edge="1">
          <mxGeometry relative="1" as="geometry">
            <Array as="points">
              <mxPoint x="1130" y="640" />
              <mxPoint x="1130" y="640" />
            </Array>
          </mxGeometry>
        </mxCell>
        <mxCell id="tUeSwq-1diPxsUF7kdBA-35" value="5. asks the resolution of &lt;b&gt;&lt;font color=&quot;#cc0000&quot;&gt;gabrielslima.com&lt;/font&gt;&lt;/b&gt; domain name" style="edgeLabel;html=1;align=center;verticalAlign=middle;resizable=0;points=[];" parent="tUeSwq-1diPxsUF7kdBA-34" vertex="1" connectable="0">
          <mxGeometry x="-0.2411" relative="1" as="geometry">
            <mxPoint x="14" y="-17" as="offset" />
          </mxGeometry>
        </mxCell>
        <mxCell id="tUeSwq-1diPxsUF7kdBA-13" value="DNS resolver" style="rounded=1;whiteSpace=wrap;html=1;" parent="1" vertex="1">
          <mxGeometry x="830" y="319" width="90" height="421" as="geometry" />
        </mxCell>
        <mxCell id="tUeSwq-1diPxsUF7kdBA-14" value="" style="outlineConnect=0;dashed=0;verticalLabelPosition=bottom;verticalAlign=top;align=center;html=1;shape=mxgraph.aws3.cache_node;fillColor=#d80073;strokeColor=#A50040;fontColor=#ffffff;" parent="1" vertex="1">
          <mxGeometry x="845" y="610" width="60" height="63" as="geometry" />
        </mxCell>
        <mxCell id="tUeSwq-1diPxsUF7kdBA-22" style="edgeStyle=orthogonalEdgeStyle;rounded=0;orthogonalLoop=1;jettySize=auto;html=1;dashed=1;" parent="1" source="tUeSwq-1diPxsUF7kdBA-20" target="tUeSwq-1diPxsUF7kdBA-13" edge="1">
          <mxGeometry relative="1" as="geometry">
            <Array as="points">
              <mxPoint x="1130" y="410" />
              <mxPoint x="1130" y="410" />
            </Array>
          </mxGeometry>
        </mxCell>
        <mxCell id="tUeSwq-1diPxsUF7kdBA-25" value="Name Server record with pointers to &lt;b&gt;&lt;font color=&quot;#cc0000&quot;&gt;.com&lt;/font&gt;&lt;/b&gt;" style="edgeLabel;html=1;align=center;verticalAlign=middle;resizable=0;points=[];" parent="tUeSwq-1diPxsUF7kdBA-22" vertex="1" connectable="0">
          <mxGeometry x="0.1697" y="2" relative="1" as="geometry">
            <mxPoint x="19" y="-12" as="offset" />
          </mxGeometry>
        </mxCell>
        <mxCell id="tUeSwq-1diPxsUF7kdBA-20" value="&lt;div&gt;Root name servers&lt;/div&gt;&lt;div&gt;&lt;br&gt;&lt;/div&gt;&lt;div&gt;13 servers&lt;br&gt;&lt;/div&gt;" style="rounded=1;whiteSpace=wrap;html=1;" parent="1" vertex="1">
          <mxGeometry x="1380" y="334.5" width="90" height="110" as="geometry" />
        </mxCell>
        <mxCell id="tUeSwq-1diPxsUF7kdBA-29" style="edgeStyle=orthogonalEdgeStyle;rounded=0;orthogonalLoop=1;jettySize=auto;html=1;dashed=1;dashPattern=8 8;" parent="1" source="tUeSwq-1diPxsUF7kdBA-26" target="tUeSwq-1diPxsUF7kdBA-13" edge="1">
          <mxGeometry relative="1" as="geometry">
            <Array as="points">
              <mxPoint x="1040" y="560" />
              <mxPoint x="1040" y="560" />
            </Array>
          </mxGeometry>
        </mxCell>
        <mxCell id="tUeSwq-1diPxsUF7kdBA-32" value="Name server record w/ pointers to the authoritative servers of &lt;font color=&quot;#cc0000&quot;&gt;&lt;b&gt;gabrielslima.com&lt;/b&gt;&lt;/font&gt;" style="edgeLabel;html=1;align=center;verticalAlign=middle;resizable=0;points=[];" parent="tUeSwq-1diPxsUF7kdBA-29" vertex="1" connectable="0">
          <mxGeometry x="0.1561" relative="1" as="geometry">
            <mxPoint x="26" y="-11" as="offset" />
          </mxGeometry>
        </mxCell>
        <mxCell id="tUeSwq-1diPxsUF7kdBA-26" value="&lt;div&gt;Top-level domain name servers Zones&lt;br&gt;&lt;/div&gt;&lt;div&gt;&lt;br&gt;&lt;/div&gt;&lt;div&gt;1918 servers&lt;br&gt;&lt;/div&gt;" style="rounded=1;whiteSpace=wrap;html=1;" parent="1" vertex="1">
          <mxGeometry x="1380" y="473.5" width="90" height="110" as="geometry" />
        </mxCell>
        <mxCell id="tUeSwq-1diPxsUF7kdBA-36" style="edgeStyle=orthogonalEdgeStyle;rounded=0;orthogonalLoop=1;jettySize=auto;html=1;" parent="1" source="tUeSwq-1diPxsUF7kdBA-33" target="tUeSwq-1diPxsUF7kdBA-13" edge="1">
          <mxGeometry relative="1" as="geometry">
            <Array as="points">
              <mxPoint x="1120" y="700" />
              <mxPoint x="1120" y="700" />
            </Array>
          </mxGeometry>
        </mxCell>
        <mxCell id="tUeSwq-1diPxsUF7kdBA-37" value="DNS record containing information about &lt;b&gt;&lt;font color=&quot;#cc0000&quot;&gt;gabrielslima.com&lt;/font&gt;&lt;/b&gt;" style="edgeLabel;html=1;align=center;verticalAlign=middle;resizable=0;points=[];" parent="tUeSwq-1diPxsUF7kdBA-36" vertex="1" connectable="0">
          <mxGeometry x="0.053" y="2" relative="1" as="geometry">
            <mxPoint y="-12" as="offset" />
          </mxGeometry>
        </mxCell>
        <mxCell id="tUeSwq-1diPxsUF7kdBA-33" value="Authoritative servers" style="rounded=1;whiteSpace=wrap;html=1;" parent="1" vertex="1">
          <mxGeometry x="1380" y="614.5" width="90" height="110" as="geometry" />
        </mxCell>
        <mxCell id="tUeSwq-1diPxsUF7kdBA-46" value="&lt;div&gt;stub resolver (dns client)&lt;/div&gt;" style="rounded=0;whiteSpace=wrap;html=1;align=left;verticalAlign=top;fillColor=none;" parent="1" vertex="1">
          <mxGeometry x="440" y="513" width="125" height="167" as="geometry" />
        </mxCell>
        <mxCell id="tUeSwq-1diPxsUF7kdBA-45" value="" style="shape=image;html=1;verticalAlign=top;verticalLabelPosition=bottom;labelBackgroundColor=#ffffff;imageAspect=0;aspect=fixed;image=https://cdn1.iconfinder.com/data/icons/operating-system-flat-1/30/ios-128.png" parent="1" vertex="1">
          <mxGeometry x="-20" y="633" width="70" height="70" as="geometry" />
        </mxCell>
        <mxCell id="tUeSwq-1diPxsUF7kdBA-44" value="" style="shape=image;html=1;verticalAlign=top;verticalLabelPosition=bottom;labelBackgroundColor=#ffffff;imageAspect=0;aspect=fixed;image=https://cdn1.iconfinder.com/data/icons/logo-s-icon-pack-collection/512/windows-128.png" parent="1" vertex="1">
          <mxGeometry x="60" y="639" width="50" height="50" as="geometry" />
        </mxCell>
        <mxCell id="tUeSwq-1diPxsUF7kdBA-47" value="" style="shape=image;html=1;verticalAlign=top;verticalLabelPosition=bottom;labelBackgroundColor=#ffffff;imageAspect=0;aspect=fixed;image=https://cdn1.iconfinder.com/data/icons/logo-s-icon-pack-collection/517/linux-128.png" parent="1" vertex="1">
          <mxGeometry x="130" y="624" width="65" height="65" as="geometry" />
        </mxCell>
        <mxCell id="tUeSwq-1diPxsUF7kdBA-7" value="" style="outlineConnect=0;dashed=0;verticalLabelPosition=bottom;verticalAlign=top;align=center;html=1;shape=mxgraph.aws3.cache_node;fillColor=#d80073;gradientColor=none;strokeColor=#A50040;fontFamily=Helvetica;fontSize=12;fontColor=#ffffff;" parent="1" vertex="1">
          <mxGeometry x="464.04999999999995" y="567" width="40.95" height="43" as="geometry" />
        </mxCell>
        <mxCell id="tUeSwq-1diPxsUF7kdBA-51" value="" style="shape=image;html=1;verticalAlign=top;verticalLabelPosition=bottom;labelBackgroundColor=#ffffff;imageAspect=0;aspect=fixed;image=https://cdn1.iconfinder.com/data/icons/operating-system-flat-1/30/android-128.png" parent="1" vertex="1">
          <mxGeometry x="210" y="623" width="80" height="80" as="geometry" />
        </mxCell>
        <mxCell id="dDs_sU-MVGWkAlIGCaFT-1" value="browser cache" style="outlineConnect=0;dashed=0;verticalLabelPosition=bottom;verticalAlign=top;align=center;html=1;shape=mxgraph.aws3.cache_node;fillColor=#d80073;gradientColor=none;strokeColor=#A50040;fontFamily=Helvetica;fontSize=12;fontColor=#000000;" vertex="1" parent="1">
          <mxGeometry x="505" y="271.5" width="40" height="43" as="geometry" />
        </mxCell>
        <mxCell id="dDs_sU-MVGWkAlIGCaFT-4" style="edgeStyle=orthogonalEdgeStyle;rounded=0;orthogonalLoop=1;jettySize=auto;html=1;dashed=1;" edge="1" parent="1" source="dDs_sU-MVGWkAlIGCaFT-1" target="tUeSwq-1diPxsUF7kdBA-4">
          <mxGeometry relative="1" as="geometry">
            <Array as="points">
              <mxPoint x="315" y="303" />
              <mxPoint x="315" y="303" />
            </Array>
          </mxGeometry>
        </mxCell>
        <mxCell id="dDs_sU-MVGWkAlIGCaFT-7" value="ip address" style="edgeLabel;html=1;align=center;verticalAlign=middle;resizable=0;points=[];" vertex="1" connectable="0" parent="dDs_sU-MVGWkAlIGCaFT-4">
          <mxGeometry x="0.0165" y="1" relative="1" as="geometry">
            <mxPoint y="11" as="offset" />
          </mxGeometry>
        </mxCell>
        <mxCell id="v-OLIDeeJJNoUvGbv9xZ-1" value="TTL" style="html=1;verticalLabelPosition=bottom;align=center;labelBackgroundColor=#ffffff;verticalAlign=top;strokeWidth=2;strokeColor=#D80073;shadow=0;dashed=0;shape=mxgraph.ios7.icons.alarm_clock;fontSize=8;" vertex="1" parent="1">
          <mxGeometry x="550" y="283" width="18" height="20" as="geometry" />
        </mxCell>
        <mxCell id="v-OLIDeeJJNoUvGbv9xZ-4" value="TTL" style="html=1;verticalLabelPosition=bottom;align=center;labelBackgroundColor=#ffffff;verticalAlign=top;strokeWidth=2;strokeColor=#D80073;shadow=0;dashed=0;shape=mxgraph.ios7.icons.alarm_clock;fontSize=8;" vertex="1" parent="1">
          <mxGeometry x="516" y="583.5" width="18" height="20" as="geometry" />
        </mxCell>
        <mxCell id="v-OLIDeeJJNoUvGbv9xZ-5" value="TTL" style="html=1;verticalLabelPosition=bottom;align=center;labelBackgroundColor=#ffffff;verticalAlign=top;strokeWidth=2;strokeColor=#D80073;shadow=0;dashed=0;shape=mxgraph.ios7.icons.alarm_clock;fontSize=8;" vertex="1" parent="1">
          <mxGeometry x="890" y="683" width="18" height="20" as="geometry" />
        </mxCell>
        <mxCell id="v-OLIDeeJJNoUvGbv9xZ-15" style="edgeStyle=orthogonalEdgeStyle;rounded=1;orthogonalLoop=1;jettySize=auto;html=1;curved=0;endArrow=none;endFill=0;" edge="1" parent="1" source="v-OLIDeeJJNoUvGbv9xZ-11" target="v-OLIDeeJJNoUvGbv9xZ-14">
          <mxGeometry relative="1" as="geometry" />
        </mxCell>
        <mxCell id="v-OLIDeeJJNoUvGbv9xZ-11" value="&lt;div&gt;&lt;b&gt;DNS Record&lt;/b&gt; is any information that defines how domain name must be resolved. They are stored in name server&#39;s databases&lt;br&gt;&lt;/div&gt;" style="rounded=0;whiteSpace=wrap;html=1;" vertex="1" parent="1">
          <mxGeometry x="630" y="143" width="310" height="60" as="geometry" />
        </mxCell>
        <mxCell id="v-OLIDeeJJNoUvGbv9xZ-12" value="&lt;div&gt;Forwards queries to the DNS resolver if not cache entry for the domain name is found&lt;/div&gt;" style="text;html=1;align=center;verticalAlign=middle;whiteSpace=wrap;rounded=0;fontSize=8;" vertex="1" parent="1">
          <mxGeometry x="447.5" y="639" width="110" height="30" as="geometry" />
        </mxCell>
        <mxCell id="v-OLIDeeJJNoUvGbv9xZ-13" value="Every cache has a TTL (time to live) to flush resolved domain names" style="rounded=0;whiteSpace=wrap;html=1;" vertex="1" parent="1">
          <mxGeometry x="630" y="211.5" width="310" height="60" as="geometry" />
        </mxCell>
        <mxCell id="v-OLIDeeJJNoUvGbv9xZ-14" value="&lt;div&gt;&lt;b&gt;A Record:&lt;/b&gt; maps domain names to IPV4 address&lt;/div&gt;&lt;div&gt;&lt;b&gt;AAA Record:&lt;/b&gt; maps domain names to IPV6 address&lt;/div&gt;&lt;div&gt;&lt;b&gt;CNAME&lt;/b&gt;: maps a domain name to another domain name (aliasing)&lt;br&gt;&lt;/div&gt;&lt;div&gt;&lt;b&gt;NS (Name Server) record&lt;/b&gt;: maps the authoritative servers for a domain name&lt;/div&gt;&lt;div&gt;&lt;br&gt;&lt;/div&gt;&lt;div&gt;There are many more (TXT, SRV, MX, SOA)&lt;br&gt;&lt;/div&gt;" style="rounded=0;whiteSpace=wrap;html=1;align=left;" vertex="1" parent="1">
          <mxGeometry x="1030" y="143" width="370" height="127" as="geometry" />
        </mxCell>
        <mxCell id="v-OLIDeeJJNoUvGbv9xZ-16" value="&lt;b&gt;Zone&lt;/b&gt; is a subset of the domain name space managed by a specific authoritative entity" style="rounded=0;whiteSpace=wrap;html=1;" vertex="1" parent="1">
          <mxGeometry x="630" y="60" width="310" height="60" as="geometry" />
        </mxCell>
      </root>
    </mxGraphModel>
  </diagram>
  <diagram id="PwibQIuNlRLYuzX5v-Z3" name="DNS resolver with privacy features">
    <mxGraphModel dx="1550" dy="772" grid="1" gridSize="10" guides="1" tooltips="1" connect="1" arrows="1" fold="1" page="1" pageScale="1" pageWidth="1100" pageHeight="850" math="0" shadow="0">
      <root>
        <mxCell id="0" />
        <mxCell id="1" parent="0" />
      </root>
    </mxGraphModel>
  </diagram>
</mxfile>
